<?xml version="1.0" standalone="no"?><!DOCTYPE svg PUBLIC "-//W3C//DTD SVG 1.1//EN" "http://www.w3.org/Graphics/SVG/1.1/DTD/svg11.dtd"><svg class="icon" width="200px" height="199.80px" viewBox="0 0 1025 1024" version="1.1" xmlns="http://www.w3.org/2000/svg"><path d="M571.838212 593.119106h-338.663687c-11.670168 0-21.16648-9.496313-21.16648-21.16648s9.496313-21.16648 21.16648-21.166481h338.778101c11.670168 0 21.16648 9.496313 21.16648 21.166481s-9.496313 21.16648-21.280894 21.16648z m0-169.331843h-338.663687c-11.670168 0-21.16648-9.496313-21.16648-21.166481s9.496313-21.16648 21.16648-21.16648h338.778101c11.670168 0 21.16648 9.496313 21.16648 21.16648s-9.496313 21.16648-21.280894 21.166481z m0-169.331844h-338.663687c-11.670168 0-21.16648-9.496313-21.16648-21.16648s9.496313-21.16648 21.16648-21.166481h338.778101c11.670168 0 21.16648 9.496313 21.16648 21.166481-0.114413 11.670168-9.496313 21.16648-21.280894 21.16648z" fill="#337DFF" /><path d="M720.003575 42.790615c23.340335 0 42.332961 18.992626 42.332961 42.33296v677.441788c0 23.340335-18.992626 42.332961-42.332961 42.332961h-634.994413c-23.340335 0-42.332961-18.992626-42.332961-42.332961V85.123575c0-23.340335 18.992626-42.332961 42.332961-42.33296h634.994413z m0-42.332961h-634.994413C38.214078 0.457654 0.34324 38.328492 0.34324 85.123575v677.441788c0 46.795084 37.870838 84.665922 84.665922 84.665922h635.108827c46.795084 0 84.665922-37.870838 84.665922-84.665922V85.123575c0-46.795084-37.985251-84.665922-84.780336-84.665921z" fill="#337DFF" /><path d="M909.128939 1022.741453H860.388827v-54.575196h48.740112c3.546816 0 7.093631-0.34324 10.41162-0.915307l13.500782 53.431061c-7.780112 1.372961-15.903464 2.059441-23.912402 2.059442z m-114.871062 0h-66.13095v-54.575196h66.13095v54.575196z m-132.147486 0H596.093855v-54.575196h66.130949v54.575196z m-132.147486 0h-66.13095v-54.575196h66.13095v54.575196z m-132.147486 0H331.798883v-54.575196h66.130949v54.575196z m-137.296089-1.258548c-30.433966-4.118883-58.236425-18.306145-76.19933-39.129385l53.774302-31.692514c7.780112 9.038659 19.907933 15.216983 33.065475 17.047597l-10.640447 53.774302z m751.810502-52.058101l-39.930279-35.92581c3.775642-8.123352 5.835084-17.734078 5.835084-27.459217v-17.962905h47.595978v17.962905c0 22.539441-4.69095 44.506816-13.500783 63.385027z m-802.037988-77.57229H162.467039v-66.13095h47.824805v66.13095z m815.538771-70.021006H978.234637v-66.130949h47.595978v66.130949z m0-132.147486H978.234637V623.553073h47.595978v66.130949z m0-132.147486H978.234637v-66.130949h47.595978v66.130949z m0-132.147486H978.234637V359.258101h47.595978v66.130949z m0-132.147486H978.234637V240.268156c0-2.631508-0.114413-5.37743-0.457654-7.894525l47.023911-10.182793c0.68648 5.949497 1.029721 12.127821 1.029721 18.191732v52.858994z m-87.183017-111.553072c-8.695419-4.805363-18.878212-7.322458-29.633073-7.322458h-13.729609V123.56648h13.729609c24.713296 0 48.282458 5.835084 68.304805 16.933185l-38.671732 41.188827z" fill="#337DFF" /></svg>