<svg t="1693801541761" class="icon" viewBox="0 0 1024 1024" version="1.1" xmlns="http://www.w3.org/2000/svg" p-id="5162" width="200" height="200"><path d="M960.9 433.5H195.4c-12.6 0-24.6-4.7-33.9-13.2l-116.3-107c-10.3-9.4-16.1-22.9-16.1-36.8s5.9-27.4 16.1-36.8l116.3-107c9.3-8.5 21.3-13.2 33.9-13.2h765.4c13.3 0 25.4 7.8 30.9 19.9s3.5 26.4-5.2 36.4l-87.3 100.7 87.3 100.7c8.7 10 10.7 24.3 5.2 36.4s-17.6 19.9-30.8 19.9z m-761.6-60h704.6l-84-97 84-97H199.3l-105.4 97 105.4 97zM828.6 844.5H63.1c-13.3 0-25.4-7.8-30.9-19.9s-3.5-26.4 5.2-36.4l87.3-100.7-87.3-100.7c-8.7-10-10.7-24.3-5.2-36.4s17.7-19.9 30.9-19.9h765.4c12.6 0 24.6 4.7 33.9 13.2l116.3 107c10.3 9.4 16.1 22.8 16.1 36.8s-5.9 27.4-16.1 36.8l-116.3 107c-9.2 8.5-21.2 13.2-33.8 13.2z m-708.5-60h704.6l105.4-97-105.4-97H120.1l84 97-84 97z" p-id="5163"></path><path d="M512 1007.5c-16.6 0-30-13.4-30-30v-163c0-16.6 13.4-30 30-30s30 13.4 30 30v163c0 16.6-13.4 30-30 30zM511.6 590.5c-16.6 0-30-13.4-30-30v-157c0-16.6 13.4-30 30-30s30 13.4 30 30v157c0 16.6-13.4 30-30 30zM511.6 179.5c-16.6 0-30-13.4-30-30v-103c0-16.6 13.4-30 30-30s30 13.4 30 30v103c0 16.6-13.4 30-30 30z" p-id="5164"></path></svg>