<svg t="1686064475234" class="icon" viewBox="0 0 1024 1024" version="1.1" xmlns="http://www.w3.org/2000/svg" p-id="6360" width="200" height="200"><path d="M651.328 390.016h325.184a47.744 47.744 0 0 1 46.656 48.896v536.192a47.744 47.744 0 0 1-46.656 48.896H419.328a47.744 47.744 0 0 1-46.656-48.896v-341.12H46.912a47.744 47.744 0 0 1-46.656-48.896V48.896A47.744 47.744 0 0 1 46.912 0h557.76a47.744 47.744 0 0 1 46.656 48.896v341.12zM46.912 585.088h557.76V48.896H46.912v536.192z m635.648-16.512l-102.336 278.592h45.44l25.088-71.68h113.664l25.024 71.68h43.776l-102.912-278.592h-47.744z m-22.144 170.56l44.352-126.208 47.168 126.208h-91.52zM306.176 113.728h35.2v71.04H476.8v188.16H441.6v-22.144H341.376v130.816H307.84V350.72H210.56v22.208h-35.2v-188.16h132.48l-1.728-71.104zM210.688 314.432h96.64V221.184h-96.64v93.248z m130.752 0h100.032V221.184H341.44v93.248z" fill-opacity=".85" p-id="6361"></path></svg>