<svg t="1685610127031" class="icon" viewBox="0 0 1024 1024" version="1.1" xmlns="http://www.w3.org/2000/svg" p-id="5038" width="200" height="200"><path d="M405.461333 0a192 192 0 0 0-192 192l0.298667 10.410667c0.938667 17.28 4.138667 34.133333 9.472 50.133333l1.237333 3.498667L64.042667 256A64 64 0 0 0 0.042667 320v206.378667a42.666667 42.666667 0 0 0 56.490666 40.362666l4.48-1.834666a106.666667 106.666667 0 1 1 8.618667 196.48l-8.618667-3.626667A42.666667 42.666667 0 0 0 0.042667 796.288V960A64 64 0 0 0 64.042667 1024h640l6.186666-0.298667A64 64 0 0 0 768.042667 960L768.042667 842.282667l3.498666 1.28A192 192 0 1 0 832.042667 469.333333l-10.410667 0.298667c-17.28 0.896-34.090667 4.138667-50.133333 9.472l-3.498667 1.237333L768.042667 320l-0.256-6.144A64 64 0 0 0 704.042667 256l-117.632 0.042667 1.28-3.498667A192 192 0 0 0 405.504 0z m0 85.333333a106.666667 106.666667 0 0 1 80.469334 176.682667l-9.130667 9.813333c-22.357333 27.093333-3.413333 69.546667 33.152 69.546667L682.709333 341.290667v215.552c0 38.229333 46.378667 57.173333 73.130667 29.866666a106.666667 106.666667 0 1 1 0 149.290667l-3.584-3.328c-27.093333-22.314667-69.546667-3.413333-69.546667 33.152V938.666667H85.376l-0.042667-86.528 10.666667 0.896A192 192 0 1 0 106.709333 469.333333l-10.794666 0.298667-10.624 0.853333L85.376 341.333333l215.637333 0.042667c36.565333 0 55.466667-42.453333 33.152-69.546667l-3.285333-3.584A106.666667 106.666667 0 0 1 405.504 85.333333z" p-id="5039"></path></svg>