<svg t="1697264074661" class="icon" viewBox="0 0 1024 1024" version="1.1" xmlns="http://www.w3.org/2000/svg" p-id="5877" width="200" height="200"><path d="M182.976 961.984V61.952h411.008v246.016h246.976v654.016H182.976z m613.056-531.968H228.032v488h568V430.016zM292.992 580.48q17.024-25.472 60.032-24.512 36.992 0 53.504 17.984t15.488 49.024v14.016H368v-12.032q0-17.984-3.52-25.024t-11.52-6.976q-9.024 0-12.992 6.528t-4.992 22.528-1.024 44.992q0 28.032 1.024 44.032t5.504 22.528 12.48 6.528q9.984 0 13.504-11.52t3.52-40.512h54.016v14.976q0 30.016-10.496 46.016t-26.496 22.528-33.984 6.528q-30.976 0-48-11.52t-22.976-36.032-6.016-63.488q0-60.992 17.024-86.528z m199.04 134.528q0 14.016 4.992 19.52t12.992 5.504q9.024 0 13.504-6.016t4.48-14.976q0-14.976-12.992-22.016t-30.528-13.504-30.528-20.032-14.016-41.472q0-32 17.472-49.024t53.504-17.024 52.992 15.488 16 49.472h-52.032v-4.992q0-9.024-4.032-15.488t-12.032-7.488q-9.024 1.024-12.992 6.528t-4.032 12.48q0 14.976 14.016 22.976 14.016 6.976 30.976 14.016 17.984 6.016 31.488 20.032t14.528 43.008q0 33.984-19.52 49.984t-56.512 16q-35.008 0-53.504-14.016t-18.496-46.976v-6.976h54.016v4.992z m161.984 0q0 14.016 4.992 19.52t12.992 5.504q9.024 0 13.504-6.016t4.48-14.976q-1.024-14.976-14.016-22.016t-30.016-13.504-30.016-20.032-14.016-41.472q0-32 17.472-49.024t53.504-17.024 52.48 15.488 16.512 49.472h-52.032v-4.992q0-9.024-4.032-15.488t-12.032-7.488q-9.024 1.024-13.504 6.528t-4.48 12.48q1.024 14.976 14.976 22.976 12.992 6.976 30.976 14.016 17.984 6.016 31.488 20.032t14.528 43.008q0 33.984-19.52 49.984t-56.512 16q-35.008 0-53.504-14.016t-19.52-46.976v-6.976h54.976v4.992zM622.016 62.016l219.008 217.024H622.016V62.016z" p-id="5878"></path></svg>