<svg t="1697283529830" class="icon" viewBox="0 0 1024 1024" version="1.1" xmlns="http://www.w3.org/2000/svg" p-id="6870" width="200" height="200"><path d="M689.4 98.2l236.5 236.5V98.2H689.4zM393.8 512v413.9h236.5V571.1L512 630.2 393.8 512z m295.6 413.8h236.5v-532L689.4 571.1v354.7z m-591.2 0h236.5V512L98.2 689.4v236.4z" p-id="6871"></path><path d="M843.5 190.4c-8.2-11.6-24.4-14.4-36.1-6.2L530.7 379.9 353.6 209.3 107.9 404.4c-11.2 8.9-13 25.2-4.2 36.3 5.1 6.4 12.6 9.8 20.3 9.8 5.6 0 11.3-1.8 16.1-5.6l210.2-167 175.3 168.9 311.7-220.4c11.7-8.2 14.5-24.4 6.2-36z" p-id="6872"></path></svg>