<svg t="1685610043238" class="icon" viewBox="0 0 1024 1024" version="1.1" xmlns="http://www.w3.org/2000/svg" p-id="4877" width="200" height="200"><path d="M746.666667 810.666667m-64 0a64 64 0 1 0 128 0 64 64 0 1 0-128 0Z" p-id="4878"></path><path d="M867.626667 597.333333h-241.92l-119.978667 213.333334 119.978667 213.333333h241.92l119.978666-213.333333-119.978666-213.333334z m-49.92 85.333334l71.978666 128-72.021333 128H675.626667L603.605333 810.666667l71.978667-128h142.122667z" p-id="4879"></path><path d="M387.114667 0c91.904 0 167.082667 71.765333 171.562666 162.133333l0.213334 8.533334h151.04c33.408 0 60.970667 25.472 63.914666 58.154666l0.256 5.845334-0.042666 149.333333h0.426666c34.901333 0 68.266667 10.410667 96.469334 29.44l8.32 5.973333a42.666667 42.666667 0 0 1-51.882667 67.754667 87.765333 87.765333 0 0 0-74.88-15.061333l-6.997333 2.133333a42.666667 42.666667 0 0 1-56.490667-35.2l-0.298667-5.12L688.768 256l-179.882667 0.085333a42.666667 42.666667 0 0 1-41.642666-52.096l1.450666-4.906666c3.2-9.002667 4.864-18.56 4.864-28.373334 0-47.061333-38.613333-85.333333-86.442666-85.333333-47.872 0-86.485333 38.272-86.485334 85.333333 0 7.381333 0.938667 14.549333 2.773334 21.504l2.133333 6.826667a42.666667 42.666667 0 0 1-35.114667 56.746667l-5.12 0.298666L85.376 256 85.333333 384h0.426667c91.946667 0 167.125333 71.765333 171.605333 162.133333l0.213334 8.533334c0 91.477333-72.405333 166.016-163.242667 170.453333L85.333333 725.333333l0.042667 128h341.504a42.666667 42.666667 0 0 1 42.368 37.674667l0.298667 4.992a42.666667 42.666667 0 0 1-37.717334 42.368l-4.949333 0.298667H64.256a64.128 64.128 0 0 1-63.914667-58.154667L0.085333 874.666667 0 675.413333a42.666667 42.666667 0 0 1 51.882667-41.685333l4.906666 1.408c9.216 3.242667 18.944 4.906667 29.013334 4.906667 47.786667 0 86.442667-38.272 86.442666-85.333334s-38.613333-85.333333-86.442666-85.333333c-7.552 0-14.933333 0.938667-22.016 2.773333l-6.997334 2.133334a42.666667 42.666667 0 0 1-56.490666-35.2L0 433.962667 0.085333 234.666667c0-33.450667 25.685333-60.8 58.368-63.744L64.256 170.666667h151.04c0-94.336 77.013333-170.666667 171.818667-170.666667z" p-id="4880"></path></svg>