<svg t="1684475850660" class="icon" viewBox="0 0 1024 1024" version="1.1" xmlns="http://www.w3.org/2000/svg" p-id="9291" width="200" height="200"><path d="M869.5296 239.36h-277.7088A152.6784 152.6784 0 0 0 440.832 107.3664H144.0768A41.6768 41.6768 0 0 0 102.4 149.0432v704.1536c0 28.7744 23.3472 52.0704 52.0704 52.0704h715.008c28.7744 0 52.0704-23.3472 52.0704-52.0704V291.4304a52.0192 52.0192 0 0 0-52.0192-52.0704zM254.6688 689.1008c-14.1312 0-25.6-11.3664-25.6-25.4464s11.4688-25.4464 25.6-25.4464 25.6 11.3664 25.6 25.4464-11.4688 25.4464-25.6 25.4464z m0-188.4672c-14.1312 0-25.6-11.3664-25.6-25.4464s11.4688-25.4464 25.6-25.4464 25.6 11.3664 25.6 25.4464-11.4688 25.4464-25.6 25.4464z m539.904 163.4816a26.624 26.624 0 0 1-26.5728 26.5728H360.2944a26.624 26.624 0 0 1-26.5728-26.5728v-0.9216a26.624 26.624 0 0 1 26.5728-26.5728H768a26.624 26.624 0 0 1 26.5728 26.5728v0.9216z m0-188.4672a26.624 26.624 0 0 1-26.5728 26.5728H360.2944a26.624 26.624 0 0 1-26.5728-26.5728v-0.9216a26.624 26.624 0 0 1 26.5728-26.5728H768a26.624 26.624 0 0 1 26.5728 26.5728v0.9216z" p-id="9292"></path></svg>