<svg t="1684666063757" class="icon" viewBox="0 0 1024 1024" version="1.1" xmlns="http://www.w3.org/2000/svg" p-id="6645" width="200" height="200"><path d="M362.666667 682.666667H85.333333c-23.466667 0-42.666667-19.2-42.666666-42.666667V85.333333c0-23.466667 19.2-42.666667 42.666666-42.666666h554.666667c23.466667 0 42.666667 19.2 42.666667 42.666666v277.333334c0 23.466667-19.2 42.666667-42.666667 42.666666s-42.666667-19.2-42.666667-42.666666V128H128v469.333333h234.666667c23.466667 0 42.666667 19.2 42.666666 42.666667s-19.2 42.666667-42.666666 42.666667z" p-id="6646"></path><path d="M917.333333 960H362.666667c-23.466667 0-42.666667-19.2-42.666667-42.666667V362.666667c0-23.466667 19.2-42.666667 42.666667-42.666667h554.666666c23.466667 0 42.666667 19.2 42.666667 42.666667v554.666666c0 23.466667-19.2 42.666667-42.666667 42.666667z m-512-85.333333h469.333334V405.333333H405.333333v469.333334z" p-id="6647"></path><path d="M597.333333 789.333333c-10.666667 0-21.333333-4.266667-29.866666-12.8s-12.8-19.2-12.8-29.866666 4.266667-21.333333 12.8-29.866667l34.133333-34.133333H362.666667c-23.466667 0-42.666667-19.2-42.666667-42.666667s19.2-42.666667 42.666667-42.666667h238.933333l-34.133333-34.133333c-8.533333-8.533333-12.8-19.2-12.8-29.866667s4.266667-21.333333 12.8-29.866666c17.066667-17.066667 42.666667-17.066667 59.733333 0l106.666667 106.666666c4.266667 4.266667 6.4 8.533333 8.533333 12.8 2.133333 4.266667 4.266667 10.666667 4.266667 17.066667s-2.133333 10.666667-4.266667 17.066667c-2.133333 4.266667-4.266667 8.533333-8.533333 12.8l-106.666667 106.666666c-8.533333 8.533333-19.2 12.8-29.866667 12.8z" p-id="6648"></path><path d="M362.666667 960c-23.466667 0-42.666667-19.2-42.666667-42.666667V362.666667c0-23.466667 19.2-42.666667 42.666667-42.666667s42.666667 19.2 42.666666 42.666667v554.666666c0 23.466667-19.2 42.666667-42.666666 42.666667z" p-id="6649"></path></svg>