<svg t="1684479266183" class="icon" viewBox="0 0 1024 1024" version="1.1" xmlns="http://www.w3.org/2000/svg" p-id="14456" width="200" height="200"><path d="M382.141 426.231L201.877 319.542V260.46l180.264-106.201v69.58l-125.737 65.43 125.737 67.871v69.091zM464.944 473.106l65.11-370.117h37.847l-65.828 370.117h-37.129zM650.704 426.476v-69.092l125.916-67.383-125.916-66.65v-68.604l180.443 106.201v58.594L650.704 426.476zM47.352 830.714V487.12h141.887v58.125H89.022v81.328h86.785v58.125H89.022v146.016h-41.67zM250.504 661.026c0-40.935 4.448-74.648 13.345-101.133 8.895-26.484 20.518-46.209 34.869-59.18 14.348-12.968 31.74-19.453 52.174-19.453 29.617 0 53.751 15.392 72.407 46.172 18.653 30.783 27.981 74.611 27.981 131.484 0 57.503-9.874 102.422-29.617 134.766-17.335 28.594-40.869 42.891-70.599 42.891-29.961 0-53.611-14.14-70.943-42.422-19.745-32.343-29.617-76.717-29.617-133.125z m43.049-2.343c0 39.532 5.519 69.181 16.555 88.945 11.037 19.769 24.718 29.648 41.044 29.648 16.439 0 30.063-9.804 40.872-29.414 10.805-19.606 16.21-49.724 16.21-90.352 0-39.844-5.26-69.295-15.78-88.359-10.52-19.062-24.287-28.594-41.302-28.594s-30.868 9.609-41.561 28.828c-10.692 19.219-16.038 48.985-16.038 89.298zM519.436 830.714V487.12h87.99c22.498 0 38.571 3.087 48.214 9.258 9.644 6.174 17.564 16.875 23.763 32.109 6.199 15.234 9.299 33.479 9.299 54.727 0 26.876-4.735 48.516-14.206 64.922s-22.932 26.719-40.379 30.938c8.954 8.753 16.358 18.321 22.213 28.711 5.854 10.394 13.832 29.026 23.935 55.898l25.14 67.031h-49.857l-30.244-74.766c-10.886-27.03-18.279-43.945-22.181-50.742-3.904-6.797-8.036-11.484-12.397-14.063-4.364-2.578-11.365-3.867-21.008-3.867h-8.609v143.438h-41.673z m41.67-198.281H592.1c18.941 0 30.995-1.132 36.161-3.398 5.165-2.263 9.354-6.833 12.569-13.711 3.213-6.874 4.821-16.015 4.821-27.422 0-10.936-1.608-19.725-4.821-26.367-3.215-6.64-7.576-11.21-13.086-13.711-3.904-1.718-15.213-2.578-33.922-2.578h-32.717v87.187zM762.71 830.714V487.12h62.495l37.635 234.609 37.339-234.609h62.791v343.594h-38.915V560.011L882.79 830.714h-40.207l-40.958-270.703v270.703H762.71z" p-id="14457"></path></svg>