<svg t="1686625024503" class="icon" viewBox="0 0 1024 1024" version="1.1" xmlns="http://www.w3.org/2000/svg" p-id="6316" width="200" height="200"><path d="M244.48 399.104c26.88-26.624 59.776-28.608 82.56-5.76 23.488 23.808 21.248 53.76-6.72 81.856-53.76 53.888-108.352 107.072-161.536 161.6-65.792 67.264-68.544 158.08-7.936 219.008 57.984 58.304 153.92 58.56 214.528-0.448 55.104-53.76 108.736-108.992 163.712-162.816 32.96-32.256 83.2-20.8 91.904 22.72 3.2 15.552-3.2 39.104-13.952 50.56-59.776 62.912-119.424 126.4-184.576 183.616-79.616 69.888-172.992 81.472-270.336 39.104C58.048 947.584 0.192 855.232 0 752.896c0.448-72 25.472-134.144 75.904-185.344 55.68-56.704 112.128-112.576 168.576-168.448z m387.968-99.008c17.6-17.664 38.336-25.024 62.4-14.592 21.568 9.344 32.448 26.432 33.984 57.024-3.456 6.592-7.488 20.736-16.512 29.952a51904.896 51904.896 0 0 1-330.304 332.288c-23.552 23.424-56.96 21.888-79.104-0.448-22.272-22.528-21.632-53.376 3.2-78.272C414.656 517.12 523.52 408.576 632.448 300.096zM767.232 0c94.016 5.504 178.688 51.84 222.592 155.072 44.544 104.832 24.704 202.304-52.16 285.568-54.4 58.88-112.896 114.176-169.984 170.432-24.832 24.576-64.64 25.344-86.08 2.752-21.76-22.912-19.328-54.272 6.72-80.512 56.064-56.32 112.96-111.872 168.448-168.576 83.584-85.568 46.528-221.632-68.992-252.352-48.064-12.736-94.208-3.84-130.688 30.08-58.816 54.72-114.112 112.96-172.608 167.744-12.416 11.584-32.96 21.632-49.024 20.608-43.072-2.624-64.832-54.784-35.008-85.888 64-66.688 129.28-132.352 198.08-194.112 41.92-37.568 96.32-50.496 168.704-50.816z" p-id="6317"></path></svg>