<svg t="1685004839488" class="icon" viewBox="0 0 1024 1024" version="1.1" xmlns="http://www.w3.org/2000/svg" p-id="8900" width="200" height="200"><path d="M979.28704 635.6224h0.05632c-22.47168-12.40064-41.12896-30.208-54.21056-52.16768-40.50944-67.57888-16.1024-154.22464 55.00928-194.04288a30.208 30.208 0 0 0 11.20256-41.87136l-92.38528-154.3424a30.208 30.208 0 0 0-40.79104-10.80832c-22.528 12.8-48.24064 19.62496-74.9824 19.62496-82.1504 0-148.48-64.39936-148.48-143.36 0-16.6656-13.48096-30.208-30.15168-30.208H419.49696a30.208 30.208 0 0 0-29.92128 30.49472c0.22528 24.80128-6.31296 49.20832-19.51232 71.168-40.84736 68.26496-132.43904 91.70432-204.288 51.76832a30.21312 30.21312 0 0 0-40.62208 10.92096L32.71168 347.136A30.20288 30.20288 0 0 0 44.08832 389.12a143.85152 143.85152 0 0 1 54.61504 52.33664C139.09504 508.928 114.91328 595.456 44.032 635.27936c-0.25088 0.13824-0.50176 0.28672-0.74752 0.43008a30.208 30.208 0 0 0-10.39872 41.44128L125.27104 831.488a30.208 30.208 0 0 0 40.78592 10.80832c22.41536-12.63104 47.90272-19.34336 74.52672-19.34336 81.92 0 148.02432 63.88736 148.48 142.5664a30.208 30.208 0 0 0 30.208 30.03392H604.04736a30.208 30.208 0 0 0 30.1568-30.26432 135.9616 135.9616 0 0 1 19.56864-70.53824c40.7296-68.10112 132.09088-91.59168 203.94496-51.88608a30.208 30.208 0 0 0 40.56064-10.9824l92.32896-154.28608c8.76032-14.6688 3.64032-33.72544-11.32032-41.97376z m-123.83232 128.22528a227.42528 227.42528 0 0 0-72.77056-11.99616c-78.32064 0-151.29088 40.6528-190.42816 106.10176a206.71488 206.71488 0 0 0-25.6256 65.92H456.41728c-20.29056-98.2528-109.55264-172.60032-215.8336-172.60032-24.84224 0-49.408 4.096-72.60672 11.99616l-53.77024-89.8304c33.55648-28.35968 57.38496-65.65376 68.69504-108.22656 14.56128-54.784 6.5024-111.81056-22.69184-160.57344a215.84384 215.84384 0 0 0-46.0288-54.02112l53.72928-89.7024a227.18976 227.18976 0 0 0 73.17504 12.1344c78.32064 0 151.31648-40.67328 190.4896-106.14272a207.8976 207.8976 0 0 0 25.77408-66.78528h109.79328c19.84512 98.79552 109.17376 173.568 216.04864 173.568 25.02144 0 49.76128-4.16256 73.11872-12.1856l53.6576 89.64096c-33.67936 28.3648-57.66144 65.78176-69.03296 108.5184-14.592 54.81472-6.51776 111.86176 22.71744 160.64a213.34016 213.34016 0 0 0 45.5936 53.6576l-53.79072 89.88672z" p-id="8901"></path><path d="M348.24704 720.66048l17.65888-15.96928c31.47776-28.24704 58.5216-44.35968 107.24352-63.90784l8.8832-3.5328c1.68448-0.7168 3.64544-1.8944 5.41184-3.32288l0.71168-0.54784c1.80224-1.34144 3.67616-2.69312 5.73952-4.09088 5.51424-3.70176 6.63552-7.07584 7.00928-9.89184 0.65536-5.40672-0.93696-11.2384-4.39808-15.80032-11.57632-13.74208-18.20672-35.2512-16.15872-52.57216 0.1024-0.8448 0.10752-1.4848 0.08704-1.95072a1.96096 1.96096 0 0 0-0.42496-0.04096l-0.78336 0.10752c-3.20512 0.56832-6.50752 0.86528-9.8048 0.86528-15.29856 0-30.61248-6.04672-44.28288-17.47968-4.66944-3.90656-8.92928-6.144-11.6736-6.144-0.59392 0-1.18272 0.1024-1.84832 0.31232-1.80224 0.58368-8.64768 3.59936-17.2288 16.5888a115.21024 115.21024 0 0 0-14.9504 33.55648c-13.21472 50.91328-51.82464 83.26656-58.2656 88.37632l-34.97472 30.2592-41.5744-54.07744 34.3552-28.41088c4.66944-3.98336 28.3136-25.28256 35.52768-53.09952a183.26528 183.26528 0 0 1 23.90528-53.56544c14.76096-22.1696 32.96256-37.1712 52.7104-43.51488a72.90368 72.90368 0 0 1 22.19008-3.47648c19.15904 0 37.66272 7.39328 54.9888 21.97504 0.8192 0.65024 1.50016 1.10592 2.01728 1.41312a69.0688 69.0688 0 0 1 56.56576 17.44384c15.42144 14.63808 22.49728 34.816 20.3008 57.22624 0.11776 1.32096 0.57856 2.60608 1.35168 3.69152a90.51648 90.51648 0 0 1 18.9696 66.82112c-3.0976 23.29088-15.91808 43.42272-36.1216 56.97536-1.1776 0.76288-2.07872 1.4592-3.03104 2.16576a88.76032 88.76032 0 0 1-21.46304 12.46208l-8.832 3.50208c-41.9328 16.82432-61.52192 28.38016-87.25504 51.47136l-17.60768 15.93344-44.94848-49.75104z" p-id="8902"></path><path d="M633.40544 575.88736a78.76608 78.76608 0 0 1-49.8176-17.81248c-21.03808-17.6128-30.69952-44.86144-25.99936-73.01632l0.14848-0.8192a5.9904 5.9904 0 0 0-1.5872-5.40672 12.14976 12.14976 0 0 0-9.52832-3.40992c-4.88448 0.6912-9.76896 1.04448-14.52032 1.04448-13.58848 0-26.05056-2.7648-37.03808-8.2176-18.99008-9.45152-32.15872-25.8048-38.10816-47.29856-4.0704-14.71488-8.22272-43.5968 9.66656-71.76192 15.38048-24.18176 41.94816-39.69536 78.976-46.12096 48.54784-8.24832 74.50112-35.08224 74.75712-35.3536l15.80544-17.44896 49.66912 45.0048-15.94368 17.65376c-4.20352 4.58752-42.21952 44.22144-112.9728 56.32-17.2032 2.944-28.81536 8.46848-33.60256 15.98464-3.968 6.2976-2.72384 13.96224-1.6128 17.95584 1.08032 3.81952 2.30912 6.20544 10.05568 6.20544a40.15104 40.15104 0 0 0 5.62688-0.44544l0.57856-0.0768a79.98976 79.98976 0 0 1 9.6512-0.5888c21.0176 0 41.5744 8.5504 56.40192 23.47008a73.12384 73.12384 0 0 1 19.69152 64.93184c-0.65024 3.95264 0.36864 7.84384 2.816 9.89184 1.81248 1.52576 4.43392 2.2784 7.8336 2.2784 3.49184 0 7.65952-0.82432 12.0576-2.39104 19.29216-6.8352 17.92512-41.19552 17.89952-41.5488-0.4096-6.4768-2.24256-64.7168 59.4944-109.60384l19.30752-14.06976 39.31136 54.34368-19.2 13.98784c-32.32256 23.49568-32.03584 50.3808-32.00512 51.51744v0.00512a141.88544 141.88544 0 0 1-4.6336 42.10688c-8.77568 32.78336-29.30688 56.38144-57.8048 66.49344a102.4512 102.4512 0 0 1-34.21184 6.19008l-1.16224 0.00512z" p-id="8903"></path></svg>